<svg width="20" height="21" viewBox="0 0 20 21" fill="none" xmlns="http://www.w3.org/2000/svg">
<path d="M17.0711 3.07537C15.1823 1.0922 12.6711 0 10 0C7.32895 0 4.81766 1.0922 2.92892 3.07537C1.04019 5.05854 0 7.6954 0 10.5C0 13.3046 1.04019 15.9415 2.92892 17.9246C4.81766 19.9078 7.32895 21 10 21C12.6711 21 15.1823 19.9078 17.0711 17.9246C18.9598 15.9415 20 13.3046 20 10.5C20 7.6954 18.9598 5.05854 17.0711 3.07537V3.07537ZM10 19.3594C5.3476 19.3594 1.5625 15.385 1.5625 10.5C1.5625 5.61497 5.3476 1.64062 10 1.64062C14.6524 1.64062 18.4375 5.61497 18.4375 10.5C18.4375 15.385 14.6524 19.3594 10 19.3594V19.3594ZM10.7812 9.67889H14.2969V11.3195H10.7812V15.0109H9.21875V11.3195H5.70312V9.67889H9.21875V5.98748H10.7812V9.67889Z" fill="#7E7E7E"/>
</svg>
